<?xml version="1.0" standalone="no"?>
<!DOCTYPE svg PUBLIC "-//W3C//DTD SVG 20010904//EN"
 "http://www.w3.org/TR/2001/REC-SVG-20010904/DTD/svg10.dtd">
<svg version="1.0" xmlns="http://www.w3.org/2000/svg"
 width="1280.000000pt" height="1110.000000pt" viewBox="0 0 1280.000000 1110.000000"
 preserveAspectRatio="xMidYMid meet">
<metadata>
Created by potrace 1.16, written by Peter Selinger 2001-2019
</metadata>
<g transform="translate(0.000000,1110.000000) scale(0.100000,-0.100000)"
fill="#000000" stroke="none">
<path d="M7185 10640 c-650 -58 -1252 -297 -1745 -690 -131 -105 -362 -335
-461 -460 -90 -112 -190 -257 -248 -357 l-41 -72 -94 40 c-107 44 -237 81
-376 105 -116 21 -379 23 -500 5 -724 -108 -1277 -652 -1361 -1337 l-12 -101
-76 -18 c-42 -10 -132 -37 -201 -60 -369 -125 -672 -315 -941 -591 -301 -310
-503 -696 -586 -1121 -24 -126 -27 -159 -27 -388 -1 -218 2 -266 21 -371 113
-611 459 -1131 981 -1476 372 -245 766 -372 1232 -398 108 -6 1589 -10 3875
-10 2569 0 3720 -3 3765 -10 175 -29 273 -72 343 -150 77 -85 77 -86 77 -617
l0 -464 -24 -47 c-13 -26 -40 -64 -60 -84 -64 -66 -82 -71 -276 -79 -153 -5
-185 -10 -254 -33 -165 -56 -256 -139 -256 -233 0 -29 24 -106 76 -240 92
-240 167 -464 194 -575 11 -46 24 -146 30 -222 12 -173 26 -209 84 -214 35 -3
43 1 86 48 26 28 75 99 108 158 80 141 115 173 227 212 33 11 116 29 187 40
799 122 1272 570 1348 1276 8 80 10 587 8 1924 -4 2012 2 1842 -69 2117 -161
629 -633 1176 -1259 1459 -91 41 -294 115 -386 139 -7 2 -14 48 -18 117 -41
686 -324 1323 -814 1830 -495 512 -1143 834 -1882 933 -133 18 -543 27 -675
15z m969 -3109 c133 -70 315 -151 487 -216 l126 -47 -39 -59 c-57 -84 -80
-158 -86 -265 -5 -111 9 -183 54 -274 90 -180 267 -289 469 -290 161 0 284 49
391 156 107 109 162 255 152 409 -3 51 -1 75 6 74 6 0 58 -8 116 -18 l104 -17
-3 -49 c-19 -347 -249 -684 -576 -847 -400 -200 -888 -113 -1200 213 -312 327
-380 789 -174 1191 28 54 53 98 56 98 3 0 56 -27 117 -59z"/>
</g>
</svg>
